<svg
    xmlns="http://www.w3.org/2000/svg"
    viewBox="0 0 512 512"
    id="vector">
    <path
        id="path_8"
        d="M 448.817 180.033 L 410.233 119.066 C 406.659 113.426 399.759 110.878 393.387 112.679 C 386.971 114.539 382.562 120.413 382.562 127.093 C 382.562 153.885 379.134 170.57 371.869 189.071 C 364.091 156.815 349.223 143.456 334.266 133.055 C 300.238 109.163 296.019 93.402 315.413 62.757 L 339.92 23.027 C 342.85 18.398 343.025 12.553 340.389 7.763 C 337.753 2.973 332.714 0 327.25 0 C 303.298 0 278.967 4.376 256 13.66 C 199.014 36.695 150.663 91.846 139.105 190.917 C 129.745 165.663 130.36 138.607 131.004 110.526 C 131.15 103.627 131.312 96.8 131.312 90.062 C 131.312 83.382 126.903 77.508 120.487 75.648 C 114.188 73.861 107.23 76.395 103.641 82.035 L 84.554 112.196 C 49.516 167.553 31 231.947 31 298.437 C 31 386.626 82.189 464.548 156.449 497 L 256 497 L 357.426 497 C 431.686 464.548 482.875 386.626 482.875 298.437 C 482.874 256.176 471.098 215.233 448.817 180.033 Z"
        fill="#3d77d1"/>
    <path
        id="path_9"
        d="M 357.426 497 C 431.686 464.548 482.875 386.626 482.875 298.437 C 482.875 256.176 471.098 215.234 448.818 180.034 L 410.234 119.067 C 406.66 113.427 399.76 110.879 393.388 112.68 C 386.972 114.54 382.563 120.414 382.563 127.094 C 382.563 153.886 379.135 170.571 371.87 189.072 C 364.092 156.816 349.224 143.457 334.267 133.056 C 300.239 109.164 296.02 93.403 315.414 62.758 L 339.921 23.028 C 342.851 18.399 343.026 12.554 340.39 7.764 C 337.754 2.974 332.714 0 327.25 0 C 303.298 0 278.967 4.376 256 13.66 L 256 497 Z"
        fill="#3768b5"/>
    <path
        id="path_10"
        d="M 46 91 C 42.162 91 38.324 89.535 35.395 86.605 L 4.395 56.605 C -1.464 50.746 -1.464 41.253 4.395 35.394 C 10.254 29.535 19.747 29.535 25.606 35.394 L 56.606 65.394 C 62.465 71.253 62.465 80.746 56.606 86.605 C 53.676 89.535 49.838 91 46 91 Z"
        fill="#1f6ee8"/>
    <path
        id="path_11"
        d="M 455.395 146.605 C 449.536 140.746 449.536 131.253 455.395 125.394 L 486.395 95.394 C 492.254 89.535 501.747 89.535 507.606 95.394 C 513.465 101.253 513.465 110.746 507.606 116.605 L 476.606 146.605 C 470.746 152.465 461.254 152.465 455.395 146.605 Z"
        fill="#185fcc"/>
    <path
        id="path_12"
        d="M 358.158 307.226 C 349.266 294.892 337.914 284.565 324.408 276.508 C 309.745 267.763 301 253.056 301 237.162 L 301 196 C 301 187.709 294.291 181 286 181 L 256 181 L 226 181 C 217.709 181 211 187.709 211 196 L 211 237.162 C 211 253.056 202.255 267.763 187.606 276.493 C 174.1 284.535 162.748 294.877 153.827 307.225 C 113.022 363.851 181.881 464.328 206.889 497 L 256 497 L 305.111 497 C 330.119 464.328 398.976 363.851 358.158 307.226 Z"
        fill="#0d47a1"/>
    <path
        id="path_13"
        d="M 358.158 307.226 C 349.266 294.892 337.914 284.565 324.408 276.508 C 309.745 267.763 301 253.056 301 237.162 L 301 196 C 301 187.709 294.291 181 286 181 L 256 181 L 256 497 L 305.111 497 C 330.119 464.328 398.976 363.851 358.158 307.226 Z"
        fill="#04327a"/>
    <path
        id="path_14"
        d="M 466 482 L 256 482 L 46 482 C 37.709 482 31 488.709 31 497 C 31 505.291 37.709 512 46 512 L 256 512 L 466 512 C 474.291 512 481 505.291 481 497 C 481 488.709 474.291 482 466 482 Z"
        fill="#7d4b3b"/>
    <path
        id="path_15"
        d="M 481 497 C 481 488.709 474.291 482 466 482 L 256 482 L 256 512 L 466 512 C 474.291 512 481 505.291 481 497 Z"
        fill="#5c371e"/>
</svg>
